<?xml version="1.0" encoding="UTF-8" standalone="no"?>
<!-- Created with Inkscape (http://www.inkscape.org/) -->

<svg
   version="1.1"
   id="svg2358"
   xml:space="preserve"
   width="682.66669"
   height="682.66669"
   viewBox="0 0 682.66669 682.66669"
   xmlns="http://www.w3.org/2000/svg"
   xmlns:svg="http://www.w3.org/2000/svg"><defs
     id="defs2362"><clipPath
       clipPathUnits="userSpaceOnUse"
       id="clipPath2378"><path
         d="M 0,512 H 512 V 0 H 0 Z"
         id="path2376" /></clipPath></defs><g
     id="g2364"
     transform="matrix(1.3333333,0,0,-1.3333333,0,682.66667)"><path
       d="m 472.5,10 h -433 v 48 h 433 z"
       style="fill:#e0eaef;fill-opacity:1;fill-rule:nonzero;stroke:none"
       id="path2366" /><g
       id="g2368"
       transform="translate(440,298.0566)"><path
         d="M 0,0 V -240.057 H -368 V 0 l 184,126.575 z"
         style="fill:#ffdb8c;fill-opacity:1;fill-rule:nonzero;stroke:none"
         id="path2370" /></g><g
       id="g2372"><g
         id="g2374"
         clip-path="url(#clipPath2378)"><g
           id="g2380"
           transform="translate(175.9999,234)"><path
             d="M 0,0 V 0 C 30.928,0 56,-25.072 56,-56 V -176 H -56 v 120 c 0,30.928 25.072,56 56,56"
             style="fill:#baf5fc;fill-opacity:1;fill-rule:nonzero;stroke:none"
             id="path2382" /></g><g
           id="g2384"
           transform="translate(374.3333,128.0635)"><path
             d="m 0,0 h -80.54 c -9.792,0 -17.73,7.938 -17.73,17.73 v 60.54 c 0,9.792 7.938,17.73 17.73,17.73 H 0 C 9.792,96 17.73,88.062 17.73,78.27 V 17.73 C 17.73,7.938 9.792,0 0,0"
             style="fill:#baf5fc;fill-opacity:1;fill-rule:nonzero;stroke:none"
             id="path2386" /></g><g
           id="g2388"
           transform="translate(123.6667,413.561)"><path
             d="M 0,0 V 48.439 H -59.667 V -41.976 Z"
             style="fill:#e2a284;fill-opacity:1;fill-rule:nonzero;stroke:none"
             id="path2390" /></g><g
           id="g2392"
           transform="translate(72,58)"><path
             d="M 0,0 V 240.057"
             style="fill:none;stroke:#000000;stroke-width:20;stroke-linecap:round;stroke-linejoin:round;stroke-miterlimit:10;stroke-dasharray:none;stroke-opacity:1"
             id="path2394" /></g><g
           id="g2396"
           transform="translate(440,298.0566)"><path
             d="M 0,0 V -240.057"
             style="fill:none;stroke:#000000;stroke-width:20;stroke-linecap:round;stroke-linejoin:round;stroke-miterlimit:10;stroke-dasharray:none;stroke-opacity:1"
             id="path2398" /></g><g
           id="g2400"
           transform="translate(465.2407,282.5063)"><path
             d="M 0,0 -209.241,142.125 -418.481,0 -454.442,52.942 -209.241,219.494 35.96,52.942 Z"
             style="fill:#ff7c7a;fill-opacity:1;fill-rule:nonzero;stroke:none"
             id="path2402" /></g><g
           id="g2404"
           transform="translate(465.2407,282.5063)"><path
             d="M 0,0 -209.241,142.125 -418.481,0 -454.442,52.942 -209.241,219.494 35.96,52.942 Z"
             style="fill:none;stroke:#000000;stroke-width:20;stroke-linecap:round;stroke-linejoin:round;stroke-miterlimit:10;stroke-dasharray:none;stroke-opacity:1"
             id="path2406" /></g><g
           id="g2408"
           transform="translate(175.9999,234)"><path
             d="M 0,0 V 0 C 30.928,0 56,-25.072 56,-56 V -176 H -56 v 120 c 0,30.928 25.072,56 56,56 z"
             style="fill:none;stroke:#000000;stroke-width:20;stroke-linecap:round;stroke-linejoin:round;stroke-miterlimit:10;stroke-dasharray:none;stroke-opacity:1"
             id="path2410" /></g><g
           id="g2412"
           transform="translate(374.3333,128.0635)"><path
             d="m 0,0 h -80.54 c -9.792,0 -17.73,7.938 -17.73,17.73 v 60.54 c 0,9.792 7.938,17.73 17.73,17.73 H 0 C 9.792,96 17.73,88.062 17.73,78.27 V 17.73 C 17.73,7.938 9.792,0 0,0 Z"
             style="fill:none;stroke:#000000;stroke-width:20;stroke-linecap:round;stroke-linejoin:round;stroke-miterlimit:10;stroke-dasharray:none;stroke-opacity:1"
             id="path2414" /></g><g
           id="g2416"
           transform="translate(334.0635,219.1269)"><path
             d="M 0,0 V -86.127"
             style="fill:none;stroke:#000000;stroke-width:20;stroke-linecap:round;stroke-linejoin:round;stroke-miterlimit:10;stroke-dasharray:none;stroke-opacity:1"
             id="path2418" /></g><g
           id="g2420"
           transform="translate(386.0002,176.0634)"><path
             d="M 0,0 H -103.873"
             style="fill:none;stroke:#000000;stroke-width:20;stroke-linecap:round;stroke-linejoin:round;stroke-miterlimit:10;stroke-dasharray:none;stroke-opacity:1"
             id="path2422" /></g><g
           id="g2424"
           transform="translate(123.6667,413.561)"><path
             d="M 0,0 V 48.439 H -59.667 V -41.976"
             style="fill:none;stroke:#000000;stroke-width:20;stroke-linecap:round;stroke-linejoin:round;stroke-miterlimit:10;stroke-dasharray:none;stroke-opacity:1"
             id="path2426" /></g><g
           id="g2428"
           transform="translate(190.3333,142)"><path
             d="M 0,0 V 0"
             style="fill:none;stroke:#000000;stroke-width:20;stroke-linecap:round;stroke-linejoin:round;stroke-miterlimit:10;stroke-dasharray:none;stroke-opacity:1"
             id="path2430" /></g><g
           id="g2432"
           transform="translate(287.961,290.0566)"><path
             d="m 0,0 v 0 c 0,13.255 -10.745,24 -24,24 v 0 c 13.255,0 24,10.745 24,24 v 0 C 0,34.745 10.745,24 24,24 v 0 C 10.745,24 0,13.255 0,0 Z"
             style="fill:none;stroke:#000000;stroke-width:20;stroke-linecap:round;stroke-linejoin:round;stroke-miterlimit:10;stroke-dasharray:none;stroke-opacity:1"
             id="path2434" /></g><g
           id="g2436"
           transform="translate(448,454)"><path
             d="m 0,0 v 0 c 0,13.255 -10.745,24 -24,24 v 0 c 13.255,0 24,10.745 24,24 v 0 C 0,34.745 10.745,24 24,24 v 0 C 10.745,24 0,13.255 0,0 Z"
             style="fill:none;stroke:#000000;stroke-width:20;stroke-linecap:round;stroke-linejoin:round;stroke-miterlimit:10;stroke-dasharray:none;stroke-opacity:1"
             id="path2438" /></g><g
           id="g2440"
           transform="translate(379.064,58)"><path
             d="m 0,0 h 93.436 v -48 h -433 V 0 H -90"
             style="fill:none;stroke:#000000;stroke-width:20;stroke-linecap:round;stroke-linejoin:round;stroke-miterlimit:10;stroke-dasharray:none;stroke-opacity:1"
             id="path2442" /></g><g
           id="g2444"
           transform="translate(334.0637,58)"><path
             d="M 0,0 V 0"
             style="fill:none;stroke:#000000;stroke-width:20;stroke-linecap:round;stroke-linejoin:round;stroke-miterlimit:10;stroke-dasharray:none;stroke-opacity:1"
             id="path2446" /></g></g></g></g></svg>
